<svg id="Группа_3" data-name="Группа 3" xmlns="http://www.w3.org/2000/svg" xmlns:xlink="http://www.w3.org/1999/xlink" width="193" height="194" viewBox="0 0 193 194">
  <defs>
    <style>
      .cls-1 {
        fill: #fff;
        filter: url(#filter);
      }

      .cls-1, .cls-2 {
        fill-rule: evenodd;
      }

      .cls-2 {
        fill: #a3bbc8;
      }
    </style>
    <filter id="filter" x="1264" y="543" width="193" height="194" filterUnits="userSpaceOnUse">
      <feOffset result="offset" dy="6" in="SourceAlpha"/>
      <feGaussianBlur result="blur" stdDeviation="7.55"/>
      <feFlood result="flood" flood-color="#252525" flood-opacity="0.05"/>
      <feComposite result="composite" operator="in" in2="blur"/>
      <feBlend result="blend" in="SourceGraphic"/>
    </filter>
  </defs>
  <path id="Rectangle_2_copy" data-name="Rectangle 2 copy" class="cls-1" d="M1340,593.918h40a19.982,19.982,0,0,1,20,20v40a19.983,19.983,0,0,1-20,20h-40a19.983,19.983,0,0,1-20-20v-40A19.982,19.982,0,0,1,1340,593.918Z" transform="translate(-1264 -543)"/>
  <path id="icon" class="cls-2" d="M1355.44,650.922a5.06,5.06,0,1,1,5.06,5A5.034,5.034,0,0,1,1355.44,650.922Zm1.97,0a3.085,3.085,0,1,0,3.09-3.045A3.074,3.074,0,0,0,1357.41,650.922Zm11.47-11.336a5.06,5.06,0,1,1,5.06,5A5.033,5.033,0,0,1,1368.88,639.586Zm1.98,0a3.085,3.085,0,1,0,3.08-3.046A3.066,3.066,0,0,0,1370.86,639.586Zm-15.42,0a5.06,5.06,0,1,1,5.06,5A5.033,5.033,0,0,1,1355.44,639.586Zm1.97,0a3.085,3.085,0,1,0,3.09-3.046A3.075,3.075,0,0,0,1357.41,639.586Zm-15.41,0a5.06,5.06,0,1,1,5.06,5A5.033,5.033,0,0,1,1342,639.586Zm1.97,0a3.085,3.085,0,1,0,3.09-3.046A3.075,3.075,0,0,0,1343.97,639.586Zm24.91-11.337a5.06,5.06,0,1,1,5.06,5A5.034,5.034,0,0,1,1368.88,628.249Zm1.98,0a3.085,3.085,0,1,0,3.08-3.045A3.064,3.064,0,0,0,1370.86,628.249Zm-15.42,0a5.06,5.06,0,1,1,5.06,5A5.034,5.034,0,0,1,1355.44,628.249Zm1.97,0a3.085,3.085,0,1,0,3.09-3.045A3.073,3.073,0,0,0,1357.41,628.249Zm-15.41,0a5.06,5.06,0,1,1,5.06,5A5.034,5.034,0,0,1,1342,628.249Zm1.97,0a3.085,3.085,0,1,0,3.09-3.045A3.073,3.073,0,0,0,1343.97,628.249Zm24.91-11.336a5.06,5.06,0,1,1,5.06,5A5.033,5.033,0,0,1,1368.88,616.913Zm1.98,0a3.085,3.085,0,1,0,3.08-3.046A3.066,3.066,0,0,0,1370.86,616.913Zm-15.42,0a5.06,5.06,0,1,1,5.06,5A5.033,5.033,0,0,1,1355.44,616.913Zm1.97,0a3.085,3.085,0,1,0,3.09-3.046A3.075,3.075,0,0,0,1357.41,616.913Zm-15.41,0a5.06,5.06,0,1,1,5.06,5A5.033,5.033,0,0,1,1342,616.913Zm1.97,0a3.085,3.085,0,1,0,3.09-3.046A3.075,3.075,0,0,0,1343.97,616.913Z" transform="translate(-1264 -543)"/>
</svg>
